<svg viewBox="49.535999999999994 46.08 146.304 140.54399999999998" xmlns="http://www.w3.org/2000/svg" version="1.2" style="max-height: 500px" width="146.304" height="140.54399999999998">
	<style>
		.s0 { fill: #181c21 } 
		.s1 { fill: #baa360 } 
	</style>
	<g id="_Artboards_">
	</g>
	<g id="Layer 1">
		<g id="Film 01">
		</g>
		<g id="New Symbol 8">
		</g>
		<g id="&lt;Group&gt;">
			<g id="&lt;Group&gt;">
				<g id="&lt;Group&gt;">
					<path d="m181.16 174.29h-83v-55.69h47.67v34.33h-10v-24.33h-27.67v35.69h63v-54.93l-47-36.96-22.5 17.7v-20.04h-13.5v30.65l-11 8.65v64.93h-10v-69.79l11-8.64v-35.8h33.5v9.45l12.5-9.83 57 44.82z" class="s0" id="&lt;Path&gt;"/>
				</g>
			</g>
			<g id="&lt;Group&gt;">
				<g id="&lt;Group&gt;">
					<path d="m233.01 495.53v-12.9h5.5q3.68 0 3.68 3.09 0 2.52-3.6 3.73l4.43 6.08h-2.2l-4.11-5.8v-1.09q3.7-0.59 3.7-2.84 0-1.79-2.05-1.79h-3.68v11.52z" class="s1" id="&lt;Compound Path&gt;"/>
					<path d="m253.21 482.63v1.35h-6.76v4.33h6.45v1.36h-6.45v4.51h6.9v1.35h-8.57v-12.9z" class="s1" id="&lt;Compound Path&gt;"/>
					<path d="m256.3 495.53h-1.73l5.47-12.9h1.85l5.51 12.9h-1.85l-1.67-4.06h-4.27l0.46-1.35h3.25l-2.41-5.85z" class="s1" id="&lt;Compound Path&gt;"/>
					<path d="m270.82 482.63v11.55h6.75v1.35h-8.41v-12.9z" class="s1" id="&lt;Compound Path&gt;"/>
					<path d="m292.5 482.63v1.35h-6.76v4.33h6.45v1.36h-6.45v4.51h6.9v1.35h-8.57v-12.9z" class="s1" id="&lt;Compound Path&gt;"/>
					<path d="m294.98 495.08v-1.53q2.03 0.72 4.39 0.72 3.33-0.01 3.33-2.44 0-2.07-2.46-2.07h-1.66q-4.05-0.01-4.05-3.52 0-3.7 5.19-3.7 2.25 0 4.19 0.54v1.53q-1.94-0.72-4.19-0.72-3.52 0-3.52 2.35 0 2.07 2.38 2.07h1.66q4.12 0 4.13 3.52 0 3.79-5 3.79-2.36 0-4.39-0.54z" class="s1" id="&lt;Compound Path&gt;"/>
					<path d="m315.51 482.63v1.35h-4.06v11.55h-1.67v-11.55h-4.06v-1.35z" class="s1" id="&lt;Compound Path&gt;"/>
					<path d="m316.56 495.53h-1.73l5.47-12.9h1.85l5.51 12.9h-1.85l-1.67-4.06h-4.27l0.46-1.35h3.25l-2.41-5.85z" class="s1" id="&lt;Compound Path&gt;"/>
					<path d="m336.77 482.63v1.35h-4.06v11.55h-1.67v-11.55h-4.06v-1.35z" class="s1" id="&lt;Compound Path&gt;"/>
					<path d="m347.19 482.63v1.35h-6.77v4.33h6.45v1.36h-6.45v4.51h6.9v1.35h-8.57v-12.9z" class="s1" id="&lt;Compound Path&gt;"/>
				</g>
				<g id="&lt;Group&gt;">
					<path d="m227.51 501.13l0.98 1.91 1-1.91h0.83l-1.44 2.58v1.39h-0.77v-1.4l-1.44-2.57z" class="s1" id="&lt;Compound Path&gt;"/>
					<path d="m234.39 505.13q-0.42 0-0.77-0.17-0.35-0.17-0.59-0.45-0.25-0.29-0.39-0.65-0.13-0.36-0.13-0.75 0-0.4 0.14-0.76 0.14-0.36 0.4-0.64 0.25-0.28 0.6-0.45 0.35-0.16 0.76-0.16 0.42 0 0.76 0.17 0.35 0.18 0.6 0.47 0.25 0.28 0.38 0.65 0.13 0.36 0.13 0.74 0 0.39-0.14 0.75-0.14 0.37-0.39 0.64-0.26 0.28-0.6 0.44-0.35 0.17-0.76 0.17zm-1.1-2.02q0 0.26 0.07 0.5 0.08 0.24 0.22 0.43 0.14 0.18 0.35 0.3 0.21 0.11 0.47 0.11 0.27 0 0.48-0.12 0.2-0.11 0.34-0.3 0.14-0.19 0.21-0.43 0.07-0.24 0.07-0.49 0-0.25-0.07-0.49-0.08-0.25-0.22-0.43-0.15-0.18-0.35-0.3-0.21-0.1-0.47-0.1-0.26 0-0.47 0.11-0.2 0.11-0.35 0.3-0.14 0.19-0.21 0.43-0.07 0.24-0.07 0.48z" class="s1" fill-rule="evenodd" id="&lt;Compound Path&gt;"/>
					<path d="m240.8 504.45q0.27 0 0.46-0.11 0.19-0.12 0.3-0.3 0.12-0.17 0.17-0.41 0.04-0.23 0.04-0.48v-2.02h0.77v2.02q0 0.41-0.1 0.77-0.1 0.36-0.31 0.63-0.21 0.27-0.54 0.42-0.33 0.16-0.79 0.16-0.47 0-0.81-0.17-0.33-0.16-0.54-0.43-0.2-0.27-0.3-0.63-0.09-0.36-0.09-0.75v-2.02h0.78v2.02q0 0.25 0.04 0.49 0.05 0.23 0.17 0.41 0.11 0.18 0.29 0.29 0.19 0.11 0.46 0.11z" class="s1" id="&lt;Compound Path&gt;"/>
					<path d="m245.55 505.1v-3.98h1.76q0.28 0.01 0.51 0.12 0.23 0.11 0.4 0.3 0.17 0.19 0.26 0.43 0.1 0.24 0.1 0.48 0 0.38-0.2 0.7-0.19 0.32-0.52 0.46l0.94 1.49h-0.88l-0.83-1.33h-0.76v1.33zm0.77-2.01h0.97q0.11 0 0.2-0.05 0.09-0.05 0.16-0.14 0.07-0.08 0.1-0.2 0.04-0.12 0.04-0.25 0-0.14-0.04-0.26-0.05-0.12-0.12-0.21-0.08-0.08-0.18-0.13-0.1-0.05-0.19-0.05h-0.94z" class="s1" fill-rule="evenodd" id="&lt;Compound Path&gt;"/>
					<path d="m257.96 501.8h-1.26v3.3h-0.77v-3.3h-1.27v-0.68h3.3z" class="s1" id="&lt;Compound Path&gt;"/>
					<path d="m259.93 505.1l1.57-3.98h0.63l1.56 3.98h-0.82l-0.36-0.99h-1.4l-0.36 0.99zm1.88-3.14l-0.57 1.61h1.13z" class="s1" fill-rule="evenodd" id="&lt;Compound Path&gt;"/>
					<path d="m269.02 504.65q-0.46 0.48-1.06 0.48-0.38 0-0.71-0.17-0.34-0.17-0.59-0.45-0.25-0.28-0.39-0.65-0.14-0.37-0.14-0.77 0-0.41 0.14-0.77 0.14-0.36 0.4-0.63 0.25-0.27 0.6-0.43 0.34-0.16 0.74-0.16 0.55 0 0.93 0.23 0.39 0.24 0.59 0.63l-0.58 0.43q-0.15-0.29-0.4-0.45-0.26-0.16-0.56-0.16-0.25 0-0.45 0.11-0.2 0.1-0.34 0.29-0.14 0.18-0.22 0.43-0.08 0.23-0.07 0.5 0 0.29 0.08 0.53 0.08 0.24 0.23 0.42 0.16 0.18 0.36 0.28 0.2 0.11 0.45 0.11 0.55 0 0.99-0.55v-0.27h-0.8v-0.57h1.44v2.04h-0.64z" class="s1" id="&lt;Compound Path&gt;"/>
					<path d="m272.57 505.1v-3.98h0.77v3.31h2.03v0.67z" class="s1" id="&lt;Compound Path&gt;"/>
					<path d="m278.11 505.1v-3.97h0.77v3.97z" class="s1" id="&lt;Compound Path&gt;"/>
					<path d="m282.72 502.55v2.55h-0.77v-3.98h0.6l2.07 2.61v-2.6h0.77v3.97h-0.62z" class="s1" id="&lt;Compound Path&gt;"/>
					<path d="m291.22 504.43v0.67h-2.76v-3.98h2.72v0.68h-1.94v0.96h1.67v0.63h-1.67v1.04z" class="s1" id="&lt;Compound Path&gt;"/>
					<path d="m300.04 502.17q-0.04-0.04-0.14-0.11-0.11-0.07-0.25-0.13-0.15-0.06-0.33-0.11-0.17-0.05-0.35-0.04-0.32 0-0.47 0.11-0.16 0.12-0.16 0.33 0 0.13 0.06 0.21 0.06 0.08 0.17 0.14 0.11 0.06 0.28 0.11 0.17 0.05 0.4 0.11 0.29 0.08 0.53 0.17 0.23 0.09 0.4 0.22 0.16 0.14 0.25 0.32 0.09 0.19 0.09 0.46 0 0.33-0.12 0.55-0.12 0.23-0.32 0.37-0.2 0.14-0.47 0.2-0.27 0.07-0.56 0.07-0.45 0-0.89-0.14-0.43-0.13-0.78-0.38l0.34-0.67q0.05 0.06 0.18 0.14 0.14 0.08 0.31 0.16 0.19 0.08 0.4 0.14 0.22 0.05 0.45 0.05 0.64 0 0.64-0.41 0-0.13-0.07-0.22-0.08-0.09-0.21-0.16-0.13-0.06-0.33-0.12-0.18-0.05-0.42-0.12-0.29-0.08-0.5-0.17-0.21-0.09-0.35-0.21-0.14-0.13-0.21-0.3-0.07-0.16-0.07-0.39 0-0.31 0.12-0.54 0.11-0.24 0.3-0.39 0.21-0.16 0.47-0.24 0.26-0.08 0.56-0.08 0.42 0 0.78 0.13 0.35 0.13 0.61 0.31z" class="s1" id="&lt;Compound Path&gt;"/>
					<path d="m303.35 505.1v-3.98h1.69q0.27 0.01 0.5 0.12 0.24 0.11 0.41 0.3 0.16 0.19 0.26 0.43 0.09 0.24 0.09 0.48 0 0.25-0.09 0.49-0.09 0.24-0.25 0.42-0.16 0.19-0.39 0.3-0.23 0.11-0.5 0.11h-0.95v1.33zm0.78-2.01h0.89q0.22 0 0.36-0.17 0.14-0.18 0.14-0.47 0-0.15-0.04-0.27-0.05-0.12-0.12-0.21-0.07-0.08-0.17-0.12-0.1-0.05-0.2-0.05h-0.86z" class="s1" fill-rule="evenodd" id="&lt;Compound Path&gt;"/>
					<path d="m308.38 505.1l1.57-3.98h0.63l1.56 3.98h-0.82l-0.36-0.99h-1.4l-0.36 0.99zm1.88-3.14l-0.57 1.61h1.12z" class="s1" fill-rule="evenodd" id="&lt;Compound Path&gt;"/>
					<path d="m314.57 503.09q0-0.37 0.13-0.72 0.13-0.36 0.37-0.64 0.25-0.28 0.6-0.45 0.35-0.18 0.8-0.18 0.54 0 0.92 0.24 0.4 0.24 0.58 0.63l-0.59 0.41q-0.07-0.17-0.18-0.28-0.1-0.12-0.23-0.19-0.13-0.06-0.26-0.09-0.13-0.03-0.26-0.03-0.27 0-0.48 0.11-0.21 0.12-0.34 0.31-0.14 0.19-0.21 0.42-0.07 0.24-0.07 0.48 0 0.26 0.08 0.51 0.08 0.24 0.23 0.42 0.15 0.19 0.36 0.3 0.2 0.11 0.45 0.11 0.13 0 0.26-0.03 0.14-0.03 0.26-0.11 0.13-0.07 0.23-0.18 0.11-0.12 0.18-0.28l0.63 0.36q-0.09 0.23-0.26 0.4-0.17 0.17-0.39 0.28-0.22 0.12-0.46 0.18-0.24 0.07-0.47 0.07-0.42 0-0.76-0.18-0.35-0.18-0.6-0.47-0.25-0.29-0.38-0.66-0.14-0.36-0.14-0.74z" class="s1" id="&lt;Compound Path&gt;"/>
					<path d="m323.56 504.43v0.67h-2.76v-3.98h2.71v0.68h-1.94v0.96h1.68v0.63h-1.68v1.04z" class="s1" id="&lt;Compound Path&gt;"/>
					<path d="m333.35 501.13v3.97h-0.77v-1.69h-1.81v1.69h-0.77v-3.97h0.77v1.6h1.81v-1.6z" class="s1" id="&lt;Compound Path&gt;"/>
					<path d="m339.18 504.43v0.67h-2.77v-3.98h2.71v0.68h-1.93v0.96h1.67v0.63h-1.67v1.04z" class="s1" id="&lt;Compound Path&gt;"/>
					<path d="m342.04 505.1v-3.98h1.76q0.27 0.01 0.5 0.12 0.24 0.11 0.41 0.3 0.16 0.19 0.26 0.43 0.09 0.24 0.09 0.48 0 0.38-0.19 0.7-0.19 0.32-0.52 0.46l0.93 1.49h-0.87l-0.84-1.33h-0.76v1.33zm0.78-2.01h0.96q0.11 0 0.2-0.05 0.09-0.05 0.16-0.14 0.07-0.08 0.11-0.2 0.04-0.12 0.04-0.25 0-0.14-0.05-0.26-0.04-0.12-0.12-0.21-0.07-0.08-0.17-0.13-0.1-0.05-0.2-0.05h-0.93z" class="s1" fill-rule="evenodd" id="&lt;Compound Path&gt;"/>
					<path d="m350.82 504.43v0.67h-2.77v-3.98h2.72v0.68h-1.94v0.96h1.67v0.63h-1.67v1.04z" class="s1" id="&lt;Compound Path&gt;"/>
				</g>
				<g id="&lt;Group&gt;">
					<path d="m537.16 489.36h-83v-55.69h47.67v34.33h-10v-24.33h-27.67v35.69h63v-54.93l-47-36.96-22.5 17.69v-20.04h-13.5v30.66l-11 8.65v64.93h-10v-69.79l11-8.65v-35.8h33.5v9.46l12.5-9.83 57 44.82z" class="s1" id="&lt;Path&gt;"/>
				</g>
			</g>
		</g>
	</g>
</svg>