<svg viewBox="0 0 27.9053 31.7192" xmlns="http://www.w3.org/2000/svg" xmlns:xlink="http://www.w3.org/1999/xlink" width="27.905273" height="31.719238" fill="none" customFrame="#000000">
	<rect id="Playstore" width="27.754263" height="31.719160" x="0.000000" y="0.000000" />
	<path id="path94" d="M12.9101 16.4805L0 2.62103C0.00121256 2.61858 0.00121238 2.6149 0.00242494 2.61245C0.398931 1.10753 1.757 0 3.3697 0C4.01478 0 4.61984 0.176616 5.13882 0.485694L5.18005 0.510225L19.7113 8.99148L12.9101 16.4805Z" fill="rgb(234,67,53)" fill-rule="nonzero" transform="matrix(1,0,0,-1,0.119141,31.5454)" />
	<path id="path98" d="M13.3539 9.84758L13.3418 9.85616L7.068 13.5344L0 7.17258L7.09346 0L13.3333 3.64148C14.427 4.24001 15.1703 5.40642 15.1703 6.75066C15.1703 8.08755 14.4379 9.24782 13.3539 9.84758Z" fill="rgb(251,188,4)" fill-rule="nonzero" transform="matrix(1,0,0,-1,12.7354,22.5527)" />
	<path id="path102" d="M0.118831 26.3048C0.0412269 26.0153 0 25.7111 0 25.3972L0 0.906384C0 0.5924 0.041227 0.288228 0.120043 0L13.4727 13.505L0.118831 26.3048Z" fill="rgb(66,133,244)" fill-rule="nonzero" transform="matrix(1,0,0,-1,0,28.9248)" />
	<path id="path106" d="M13.0059 0L19.6871 6.75679L5.17277 15.2687C4.64531 15.5888 4.02933 15.7728 3.37091 15.7728C1.75821 15.7728 0.397718 14.6628 0.00121189 13.1567C0.00121189 13.1554 0 13.1542 0 13.153L13.0059 0Z" fill="rgb(52,168,83)" fill-rule="nonzero" transform="matrix(1,0,0,-1,0.119141,15.7725)" />
</svg>
