<svg viewBox="0 0 64 52" xmlns="http://www.w3.org/2000/svg" xmlns:xlink="http://www.w3.org/1999/xlink" width="64.000000" height="52.000000" fill="none" customFrame="#000000">
	<path id="“" d="M36.1667 52L36.1667 33.393C36.1667 25.0863 38.4444 17.8317 43 11.6294C47.5556 5.31629 54.5556 1.43982 64 0L64 12.1278C58.5556 12.7923 54.9444 14.5644 53.1667 17.4441C51.3889 20.3237 50.5 24.1448 50.5 28.9073L40.6667 26.9137L63.6667 26.9137L63.6667 52L36.1667 52ZM0 52L0 33.393C0 25.0863 2.27778 17.8317 6.83333 11.6294C11.3889 5.31629 18.3889 1.43982 27.8333 0L27.8333 12.1278C22.3889 12.7923 18.7778 14.5644 17 17.4441C15.2222 20.3237 14.3333 24.1448 14.3333 28.9073L4.5 26.9137L27.5 26.9137L27.5 52L0 52Z" fill="rgb(247.35,247.35,247.35)" fill-rule="nonzero" />
</svg>
