<svg viewBox="0 0 22 27" xmlns="http://www.w3.org/2000/svg" xmlns:xlink="http://www.w3.org/1999/xlink" width="22.000000" height="27.000000" fill="none" customFrame="#000000">
	<rect id="Apple" width="22.000000" height="27.000000" x="0.000000" y="0.000000" />
	<path id="&lt;Path>" d="M18.375 14.3586C18.3883 13.3237 18.6636 12.309 19.1753 11.4089C19.6869 10.5088 20.4183 9.75252 21.3013 9.21047C20.7403 8.41054 20.0003 7.75223 19.1399 7.28783C18.2796 6.82342 17.3227 6.56571 16.3451 6.53518C14.2599 6.31662 12.2384 7.78106 11.1757 7.78106C10.0926 7.78106 8.45653 6.55688 6.69478 6.59306C5.55523 6.62982 4.44465 6.9607 3.47125 7.55344C2.49785 8.14618 1.69482 8.98058 1.14041 9.97534C-1.26113 14.127 0.530205 20.2286 2.83072 23.5846C3.98172 25.2279 5.3269 27.0635 7.08707 26.9984C8.80949 26.9271 9.45279 25.9017 11.5319 25.9017C13.5917 25.9017 14.1952 26.9984 15.9911 26.957C17.8394 26.9271 19.0038 25.3064 20.1145 23.6475C20.9415 22.4766 21.5778 21.1825 22 19.8131C20.9262 19.3597 20.0099 18.6006 19.3653 17.6307C18.7206 16.6607 18.3762 15.5227 18.375 14.3586Z" fill="rgb(33,43,54)" fill-rule="nonzero" />
	<path id="&lt;Path>" d="M14.9827 4.32802C15.9904 3.1201 16.4869 1.56752 16.3667 0C14.8271 0.161459 13.4049 0.89617 12.3836 2.05774C11.8842 2.6252 11.5017 3.28537 11.258 4.00051C11.0143 4.71564 10.9142 5.47172 10.9633 6.22553C11.7334 6.23344 12.4952 6.06678 13.1914 5.7381C13.8877 5.40942 14.5001 4.92729 14.9827 4.32802Z" fill="rgb(33,43,54)" fill-rule="nonzero" />
</svg>
